HIERARCHY
ROOT Hips
{
	OFFSET 0.000000 8.830580 0.000000
	CHANNELS 6 Xposition Yposition Zposition Zrotation Yrotation Xrotation 
	JOINT Spine
	{
		OFFSET 0.000000 0.010000 0.000000
		CHANNELS 3 Zrotation Yrotation Xrotation
		JOINT Spine1
		{
			OFFSET 0.000000 2.459130 0.000000
			CHANNELS 3 Zrotation Yrotation Xrotation
			JOINT Neck
			{
				OFFSET 0.000000 2.484630 0.000000
				CHANNELS 3 Zrotation Yrotation Xrotation
				JOINT Head_virtual
				{
					OFFSET 0.000000 0.000000 0.000000
					CHANNELS 3 Zrotation Yrotation Xrotation
					JOINT Head
					{
						OFFSET 0.000000 0.927525 0.000000
						CHANNELS 3 Zrotation Yrotation Xrotation
						End Site
						{
							OFFSET 0.000000 0.000000 0.000000
						}
					}
				}
				JOINT LeftUpArm_virtual
				{
					OFFSET 0.000000 0.000000 0.000000
					CHANNELS 3 Zrotation Yrotation Xrotation
					JOINT LeftUpArm
					{
						OFFSET 1.248820 0.000000 0.000000
						CHANNELS 3 Zrotation Yrotation Xrotation
						JOINT LeftForeArm
						{
							OFFSET 2.597580 0.000000 0.000000
							CHANNELS 3 Zrotation Yrotation Xrotation
							JOINT LeftHand
							{
								OFFSET 2.455420 0.000000 0.000000
								CHANNELS 3 Zrotation Yrotation Xrotation
								End Site
								{
									OFFSET 0.000000 0.000000 0.000000
								}
							}
						}
					}
				}
				JOINT RightUpArm_virtual
				{
					OFFSET -0.000000 -0.000000 -0.000000
					CHANNELS 3 Zrotation Yrotation Xrotation
					JOINT RightUpArm
					{
						OFFSET -1.248820 -0.000000 -0.000000
						CHANNELS 3 Zrotation Yrotation Xrotation
						JOINT RightForeArm
						{
							OFFSET -2.597580 -0.000000 -0.000000
							CHANNELS 3 Zrotation Yrotation Xrotation
							JOINT RightHand
							{
								OFFSET -2.455420 -0.000000 -0.000000
								CHANNELS 3 Zrotation Yrotation Xrotation
								End Site
								{
									OFFSET 0.000000 0.000000 0.000000
								}
							}
						}
					}
				}
			}
		}
	}
	JOINT LeftUpLeg
	{
		OFFSET 1.271939 0.000000 0.000000
		CHANNELS 3 Zrotation Yrotation Xrotation
		JOINT LeftLowLeg
		{
			OFFSET 0.000000 -4.342910 0.000000
			CHANNELS 3 Zrotation Yrotation Xrotation
			JOINT LeftFoot
			{
				OFFSET 0.000000 -4.487670 0.000000
				CHANNELS 3 Zrotation Yrotation Xrotation
				JOINT LeftToeBase
				{
					OFFSET 0.000000 0.000000 1.515070
					CHANNELS 3 Zrotation Yrotation Xrotation
					End Site
					{
						OFFSET 0.000000 0.000000 0.000000
					}
				}
			}
		}
	}
	JOINT RightUpLeg
	{
		OFFSET -1.271939 0.000000 0.000000
		CHANNELS 3 Zrotation Yrotation Xrotation
		JOINT RightLowLeg
		{
			OFFSET 0.000000 -4.342910 0.000000
			CHANNELS 3 Zrotation Yrotation Xrotation
			JOINT RightFoot
			{
				OFFSET 0.000000 -4.487670 0.000000
				CHANNELS 3 Zrotation Yrotation Xrotation
				JOINT RightToeBase
				{
					OFFSET 0.000000 0.000000 1.515070
					CHANNELS 3 Zrotation Yrotation Xrotation
					End Site
					{
						OFFSET 0.000000 0.000000 0.000000
					}
				}
			}
		}
	}
}
MOTION
Frames: 10
Frame Time: 0.041667
-16.202379 9.032094 40.448697 -176.600559 -17.480461 -169.426641 7.125063 1.834738 -18.499728 -1.577566 -3.153041 7.713227 0.000000 0.000000 0.000000 35.977171 -5.712583 -13.825272 -7.469310 -21.784698 -84.488293 -21.520599 3.121870 9.056780 -53.150398 6.841090 -19.516998 180.000000 -69.102997 -180.000000 -29.424000 34.679100 20.294800 21.390699 -10.595200 -2.567200 31.614099 20.448099 -63.201996 180.000000 72.642998 180.000000 2.052270 -21.808701 -87.864899 4.648836 -26.100733 -9.681925 0.000000 0.000000 8.277750 -0.031501 19.061598 -3.318550 0.000000 0.000000 -11.003250 4.324306 27.868588 -8.924962 0.000000 0.000000 4.356070 2.183239 -24.765845 5.082076 0.000000 0.000000 -17.949240 
-16.203639 9.032077 40.444810 -176.601580 -16.909327 -169.278001 7.348335 1.787662 -18.477519 -1.566408 -3.375256 7.651773 0.000000 0.000000 0.000000 36.149776 -5.738073 -13.949665 -7.527726 -21.652961 -84.312036 -21.465099 3.143200 9.000200 -53.252800 7.114380 -19.838013 -180.000000 -69.128998 180.000000 -30.193800 34.606899 18.960899 21.391300 -10.687300 -2.735060 31.277700 20.380199 -65.235992 180.000000 73.067001 180.000000 1.157200 -20.362400 -89.492500 4.558491 -25.667702 -9.673945 0.000000 0.000000 8.262400 -0.035114 19.173126 -3.369502 0.000000 0.000000 -11.008830 4.183810 28.145241 -9.053104 0.000000 0.000000 4.283950 2.114367 -24.545100 5.176483 0.000000 0.000000 -17.907700 
-16.204891 9.031911 40.440382 -176.602874 -16.354327 -169.154057 7.507683 1.686853 -18.483000 -1.455046 -3.584175 7.631516 0.000000 0.000000 0.000000 36.071503 -5.588602 -13.793542 -7.666949 -21.489841 -83.935554 -21.454901 3.192670 9.019990 -53.415600 7.211040 -20.181000 -180.000000 -69.125999 180.000000 -30.421801 34.737099 18.899900 21.371401 -10.743900 -2.963200 31.012400 19.873100 -66.244995 180.000000 73.655998 180.000000 -0.130962 -18.854200 -89.952698 4.466416 -25.304533 -9.621690 0.000000 0.000000 8.206980 -0.073902 19.310913 -3.414092 0.000000 0.000000 -11.042280 4.055307 28.417412 -9.170577 0.000000 0.000000 4.253600 2.087452 -24.323484 5.220631 0.000000 0.000000 -17.851520 
-16.206191 9.031715 40.436474 -176.592089 -15.799627 -169.086399 7.652278 1.601537 -18.485882 -1.357928 -3.765730 7.679370 0.000000 0.000000 0.000000 35.953939 -5.314305 -13.409834 -7.984236 -21.252819 -83.356903 -21.415800 3.217800 8.982360 -53.660702 7.243180 -20.453003 180.000000 -69.130997 -180.000000 -30.626600 34.624298 17.893801 21.351999 -10.856700 -3.207080 30.863100 19.072500 -66.362000 180.000000 74.287003 180.000000 -1.316560 -17.796200 -90.054100 4.360816 -24.954167 -9.509956 0.000000 0.000000 8.139640 -0.103359 19.469791 -3.461881 0.000000 0.000000 -11.087680 3.965083 28.632484 -9.235258 0.000000 0.000000 4.230960 2.089698 -24.029959 5.265469 0.000000 0.000000 -17.828640 
-16.206857 9.031187 40.431844 -176.572001 -15.286212 -169.033073 7.763801 1.466562 -18.545296 -1.177843 -3.951782 7.754941 0.000000 0.000000 0.000000 35.533277 -4.898032 -12.758356 -8.431153 -21.018299 -82.556640 -21.449499 3.255800 8.932310 -53.844898 7.211280 -20.674988 180.000000 -69.167000 -180.000000 -30.703100 34.480499 17.369301 21.381599 -10.923600 -3.318140 30.730101 18.309900 -66.126007 -180.000000 74.733002 -180.000000 -1.372740 -18.063200 -90.041397 4.272952 -24.630850 -9.403347 0.000000 0.000000 8.099730 -0.157739 19.607987 -3.549897 0.000000 0.000000 -11.065840 3.909525 28.781167 -9.268284 0.000000 0.000000 4.194230 2.090875 -23.706615 5.305416 0.000000 0.000000 -17.783100 
-16.208002 9.030327 40.428484 -176.543575 -14.779879 -168.970335 7.861246 1.336976 -18.652064 -0.968987 -4.109849 7.876934 0.000000 0.000000 0.000000 34.995721 -4.400025 -11.979398 -9.022684 -20.724744 -81.535079 -21.526699 3.291070 8.978510 -53.905701 7.189360 -20.540985 180.000000 -69.125999 -180.000000 -29.162201 34.103600 18.530899 21.408100 -10.894300 -3.401670 30.670300 17.316500 -65.522003 180.000000 74.968002 180.000000 -0.536884 -19.241199 -90.382004 4.199508 -24.334825 -9.330535 0.000000 0.000000 8.078800 -0.177653 19.785510 -3.630589 0.000000 0.000000 -11.096860 3.831638 28.995511 -9.342197 0.000000 0.000000 4.183710 2.149473 -23.416098 5.319073 0.000000 0.000000 -17.770630 
-16.209322 9.029785 40.426145 -176.517495 -14.309658 -168.956050 7.956334 1.234288 -18.738410 -0.779569 -4.243894 8.051773 0.000000 0.000000 0.000000 34.464087 -3.875301 -11.129505 -9.953564 -20.337446 -80.318302 -21.555099 3.376160 8.916200 -54.092602 6.826840 -20.506989 180.000000 -69.214996 -180.000000 -29.023899 34.144600 18.117100 21.427799 -10.898200 -3.347330 30.764200 16.398199 -64.722992 -180.000000 75.250999 -180.000000 0.587927 -20.042500 -90.822700 4.103764 -24.017502 -9.246222 0.000000 0.000000 8.116300 -0.195245 19.910233 -3.717169 0.000000 0.000000 -11.113090 3.771444 29.236420 -9.389925 0.000000 0.000000 4.214670 2.206515 -23.194970 5.318595 0.000000 0.000000 -17.740790 
-16.210284 9.028639 40.424343 -176.500738 -13.869696 -168.967152 8.042522 1.161347 -18.827713 -0.593934 -4.342254 8.237038 0.000000 0.000000 0.000000 33.633495 -3.221575 -10.161973 -10.853161 -19.952971 -79.027952 -21.517599 3.357850 8.925420 -54.298302 6.479550 -20.359985 -180.000000 -69.296997 180.000000 -28.638300 34.130299 18.116600 21.527500 -10.832000 -3.213900 30.919901 15.469400 -63.851013 180.000000 75.463997 180.000000 1.373190 -20.161301 -91.154602 4.001365 -23.744096 -9.146629 0.000000 0.000000 8.154760 -0.235543 20.029551 -3.811015 0.000000 0.000000 -11.140350 3.716826 29.515205 -9.422035 0.000000 0.000000 4.262670 2.247591 -23.053104 5.300451 0.000000 0.000000 -17.735380 
-16.210641 9.027751 40.424590 -176.495917 -13.421439 -169.013375 8.097243 1.091783 -18.860254 -0.385156 -4.418594 8.448102 0.000000 0.000000 0.000000 32.549802 -2.314925 -9.128013 -11.908923 -19.453312 -77.925252 -21.532499 3.330060 8.815870 -54.414700 6.205970 -20.104004 180.000000 -69.320999 -180.000000 -28.256701 34.134300 17.850800 21.620100 -10.820300 -3.013660 31.216000 14.781600 -62.993988 -180.000000 75.667000 -180.000000 1.596200 -20.063900 -91.764099 3.877310 -23.477411 -9.036451 0.000000 0.000000 8.227250 -0.322043 20.141842 -3.916991 0.000000 0.000000 -11.143280 3.653974 29.854420 -9.455903 0.000000 0.000000 4.359150 2.315708 -22.957584 5.261481 0.000000 0.000000 -17.724370 
-16.211051 9.027198 40.426130 -176.497993 -13.048615 -169.112038 8.189451 1.043040 -18.829238 -0.218062 -4.518853 8.727841 0.000000 0.000000 0.000000 31.269006 -1.269018 -8.320641 -12.954639 -18.981551 -77.483826 -21.517000 3.338280 8.784180 -54.469101 5.851080 -19.660004 180.000000 -69.283997 -180.000000 -27.458700 34.241798 18.031700 21.752501 -10.874100 -2.897390 31.668301 14.326800 -62.072998 180.000000 75.801003 180.000000 1.608930 -19.510900 -91.984802 3.745439 -23.278625 -8.902957 0.000000 0.000000 8.316010 -0.321769 20.282206 -3.969801 0.000000 0.000000 -11.177580 3.633910 30.080195 -9.424138 0.000000 0.000000 4.448040 2.343180 -22.838668 5.245348 0.000000 0.000000 -17.694700 
